<?xml version="1.0" encoding="UTF-8" standalone="no"?>
<svg
   xmlns:dc="http://purl.org/dc/elements/1.1/"
   xmlns:cc="http://creativecommons.org/ns#"
   xmlns:rdf="http://www.w3.org/1999/02/22-rdf-syntax-ns#"
   xmlns:svg="http://www.w3.org/2000/svg"
   xmlns="http://www.w3.org/2000/svg"
   xmlns:sodipodi="http://sodipodi.sourceforge.net/DTD/sodipodi-0.dtd"
   xmlns:inkscape="http://www.inkscape.org/namespaces/inkscape"
   inkscape:version="1.0 (4035a4fb49, 2020-05-01)"
   sodipodi:docname="firstfruits-studio.svg"
   id="svg8"
   version="1.1"
   viewBox="0 0 39.34552 24.598873"
   height="24.598873mm"
   width="39.34552mm">
  <defs
     id="defs2">
    <clipPath
       clipPathUnits="userSpaceOnUse"
       id="clipPath76-6-4">
      <path
         d="M 0,660 H 660 V 0 H 0 Z"
         id="path74-2-5" />
    </clipPath>
  </defs>
  <sodipodi:namedview
     inkscape:window-maximized="1"
     inkscape:window-y="1072"
     inkscape:window-x="-8"
     inkscape:window-height="1007"
     inkscape:window-width="1920"
     showgrid="false"
     inkscape:document-rotation="0"
     inkscape:current-layer="layer1"
     inkscape:document-units="mm"
     inkscape:cy="61.782196"
     inkscape:cx="69.644316"
     inkscape:zoom="5.6568543"
     inkscape:pageshadow="2"
     inkscape:pageopacity="0.0"
     borderopacity="1.0"
     bordercolor="#666666"
     pagecolor="#ffffff"
     id="base"
     fit-margin-top="0"
     fit-margin-left="0"
     fit-margin-right="0"
     fit-margin-bottom="0"
     inkscape:pagecheckerboard="true"
     showborder="true"
     borderlayer="false"
     inkscape:showpageshadow="false"
     scale-x="1" />
  <metadata
     id="metadata5">
    <rdf:RDF>
      <cc:Work
         rdf:about="">
        <dc:format>image/svg+xml</dc:format>
        <dc:type
           rdf:resource="http://purl.org/dc/dcmitype/StillImage" />
        <dc:title />
      </cc:Work>
    </rdf:RDF>
  </metadata>
  <g
     inkscape:groupmode="layer"
     id="layer3"
     inkscape:label="Grapes"
     transform="translate(-40.37333,-72.020736)">
    <g
       transform="matrix(-0.00374434,0,0,-0.00374434,67.508304,114.59569)"
       id="grapes">
      <g
         id="g504"
         transform="translate(695.53098,3035.5876)">
        <path
           d="m 4486.04,2925.41 -57.43,95.08 c -45.61,75.56 -123.25,126.65 -214.27,141 -91,14.37 -187.18,-9.3 -265.4,-65.31 -141.6,-101.37 -309.96,-149.17 -472.42,-139.56 l 57.34,39.06 -208.83,-12.55 c -27.44,8.16 -54.36,18.15 -80.61,30.01 -27.93,12.6 -54.47,27.04 -79.59,43.15 l 69.07,63.52 -183.89,32.12 c -58.16,62.32 -102.11,136.39 -129.2,217.85 l 136.95,-22.45 -149.17,64.17 c -13.23,52.13 -19.78,106.84 -18.9,163.08 l 119.33,-47.41 c 215.4,-85.59 468.94,-60.27 679.44,67.91 34.67,21.1 55.89,58.31 55.01,96.47 -0.87,38.15 -23.68,70.94 -59.15,85.04 l -95.56,3.23 c -199.01,6.73 -378.18,94.74 -494.87,240.95 l 194.66,-67.66 -237.44,128.41 c -41.66,67.48 -69.57,141.78 -83.36,219.26 l 149.25,-71.73 -157.93,143.2 c -6.34,96.62 8.53,196.34 45.27,292.52 103.32,-178.19 309.2,-326.35 547.02,-385.36 52.77,-13.1 105.66,8.34 134.4,54.5 28.77,46.15 24.68,103.1 -10.37,144.69 -16.83,19.97 -32.16,39.33 -46.35,58.22 l 87.07,-7.69 -121.81,56.72 c -80.38,120.97 -105.58,220.31 -97.77,311.45 l 163.73,-42.12 -145.53,131.7 c 27.73,88.06 81.51,172.44 138.44,267.03 l 174.39,-77.55 -134.71,144.89 c 48.23,84.41 95.01,178.37 126.58,290.27 52.91,-74.45 126.87,-130.07 206.77,-179.75 l -63.31,-136.81 120.2,102.71 c 113.51,-66.04 231.63,-126.48 313.99,-215.7 l -144.02,-147.39 199.84,72.12 c 41.29,-71.63 61.62,-160.36 48.73,-276.66 l -148.99,-95.76 136.82,20.97 c -5.94,-28.19 -13.62,-57.82 -23.18,-89.01 -17.13,-55.95 6.25,-114.68 57.19,-143.5 50.91,-28.8 113.26,-18.67 152.39,24.81 188.19,208.94 287.69,530.09 298.71,758.69 l 77.32,-122.62 c 34.38,-54.54 61.12,-112 80.58,-171.22 l -93.94,-85.42 112.48,19.13 c 26.03,-111.77 27.32,-228.15 5.65,-341.94 l -144.81,-53.21 127.93,-18.82 c -26.84,-96.19 -70.24,-189.37 -129.09,-275.02 l -171.41,-31.17 122.06,-34.39 c -56.45,-68.75 -123.68,-131.28 -201.1,-184.83 -39.14,-27.08 -57.12,-74.62 -44.16,-116.62 12.98,-41.99 53.81,-68.31 100.16,-64.56 289.78,23.54 555.26,200.32 689.62,459.18 l 46.05,-200.74 c 16.33,-71.14 21,-144.13 14.73,-216.62 l -157.33,-20.61 147.56,-51.17 c -23.86,-127.5 -81.4,-250.91 -168.94,-357.09 l -186.42,-6.83 130.42,-54.64 c -69.46,-69.04 -149.84,-124.89 -236.43,-165.68 l -357.07,20.45 206.79,-74.4 c -86.05,-21.85 -175.31,-29.63 -263.92,-21.86 -35.91,3.16 -71.8,-16.39 -89.31,-48.7 -17.53,-32.28 -12.82,-70.17 11.7,-94.3 l -117.65,-67.13"
           style="fill:#37401a;fill-opacity:1;fill-rule:evenodd;stroke:none"
           id="path125" />
        <path
           d="m 4387.57,3196.18 c -236.62,591.82 -368.76,1229.08 -458.42,1884.83 131.82,-640.36 285.6,-1267.58 499.86,-1858.71 -13.81,-8.71 -27.62,-17.42 -41.44,-26.12"
           style="fill:#37401a;fill-opacity:1;fill-rule:evenodd;stroke:none"
           id="path127" />
        <path
           d="m 4313.28,3508.82 c -328.98,-140.94 -610.56,-215.48 -811.79,-177.52 251.17,-11.12 511.1,89.46 774.55,235.08 12.4,-19.19 24.84,-38.39 37.24,-57.56"
           style="fill:#37401a;fill-opacity:1;fill-rule:evenodd;stroke:none"
           id="path129" />
        <path
           d="m 4180.99,3925.47 c -325.11,27.35 -588.7,96.15 -748,235.22 210.39,-137.86 463.83,-170.08 734.58,-159.7 4.48,-25.17 8.93,-50.35 13.42,-75.52"
           style="fill:#37401a;fill-opacity:1;fill-rule:evenodd;stroke:none"
           id="path131" />
        <path
           d="m 4204.79,3869.23 c 273.48,177.91 473.15,363.22 547.7,561.1 -120.14,-220.98 -328.16,-369.26 -571.61,-488.23 7.98,-24.29 15.94,-48.57 23.91,-72.87"
           style="fill:#37401a;fill-opacity:1;fill-rule:evenodd;stroke:none"
           id="path133" />
        <path
           d="m 4357.32,3343.57 c 308.26,101 544.71,227.65 659.39,397.75 -164.72,-180.68 -401.87,-269.88 -668.21,-322.2 2.93,-25.17 5.87,-50.38 8.82,-75.55"
           style="fill:#37401a;fill-opacity:1;fill-rule:evenodd;stroke:none"
           id="path135" />
        <path
           d="m 4160.55,2515.53 66.72,88.81 c 53.01,70.57 71.38,161.68 50.68,251.46 -20.7,89.77 -78.59,170.12 -159.78,221.76 -146.94,93.43 -254.21,231.71 -306.04,385.99 l 57.68,-38.57 -89.71,188.99 c -2.68,28.5 -3.48,57.21 -2.29,85.99 1.24,30.61 4.72,60.64 10.27,89.94 l 84.74,-40.3 -38.94,182.55 c 36.07,77.25 88.31,145.72 153.77,201.27 l 30.35,-135.44 3.77,162.36 c 43.4,31.77 91.7,58.28 144.2,78.5 l 0.61,-128.41 c 1.12,-231.78 119.41,-457.47 316.96,-604.8 32.54,-24.26 74.98,-30.03 110.03,-14.97 35.08,15.08 56.97,48.48 56.78,86.67 l -32.71,89.83 c -68.19,187.1 -53.5,386.17 38.49,549.06 l 10,-205.85 30.36,268.23 c 47.02,63.87 105.5,117.52 172.21,159.27 l -10.74,-165.25 73.78,200.03 c 87.25,42 185.29,65.47 288.25,67.35 -126.65,-162.45 -187.14,-408.78 -152.97,-651.42 7.58,-53.84 47.25,-94.89 100.78,-104.3 53.57,-9.4 104.87,15.66 130.33,63.7 12.23,23.09 24.47,44.54 36.68,64.76 l 25.41,-83.61 7.07,134.17 c 82.16,119.77 164.88,180.27 252.35,207.1 l 22.13,-167.6 67.73,184.2 c 92.05,7.19 190.42,-11.14 299.46,-28.6 l -6.75,-190.73 84.02,179.1 c 96.33,-13.21 200.96,-21.48 316.55,-8.91 -49.28,-76.9 -73.21,-166.3 -89.44,-258.97 l -150.55,7.58 140.2,-73.08 c -18.84,-129.98 -30.76,-262.12 -82.72,-371.88 l -190.53,78.49 141.59,-158.38 c -51.02,-65.09 -125.7,-117.1 -238.39,-148.6 l -144.51,102.38 70.58,-119.07 c -28.36,-5.02 -58.71,-8.98 -91.23,-11.77 -58.3,-5.02 -104,-48.65 -111.7,-106.67 -7.67,-57.98 25.02,-112.01 79.96,-132.09 264.16,-96.43 599.2,-68.67 815.36,6.52 l -84.84,-117.51 c -37.73,-52.29 -81.03,-98.57 -128.7,-138.74 l -114.33,55.2 59.78,-97.17 c -93.93,-65.95 -201.39,-110.65 -315.03,-133.06 l -103.48,114.4 30.38,-125.68 c -99.28,-11.06 -201.92,-5.64 -303.34,16.94 l -93,147.34 13.74,-126.08 c -84.87,26.68 -168.01,65.66 -246.61,117.45 -39.73,26.18 -90.57,25.1 -124.67,-2.63 -34.1,-27.74 -43.26,-75.45 -22.44,-117.01 130.13,-259.98 393.35,-440.17 683.66,-468.05 l -168.99,-117.71 c -59.88,-41.74 -125.82,-73.36 -195.39,-94.65 l -77.93,138.23 7.68,-155.99 c -127.15,-25.54 -263.14,-18.27 -394.35,23.22 l -76.02,170.35 -1.91,-141.39 c -90.02,38.62 -171.86,92.29 -242.07,157.37 l -114.49,338.82 8.28,-219.62 c -52.42,71.68 -93,151.53 -118.91,236.63 -10.51,34.49 -42.06,60.46 -78.56,64.64 -36.48,4.19 -69.87,-14.32 -83.09,-46.1 l -106.22,84.01"
           style="fill:#556f27;fill-opacity:1;fill-rule:evenodd;stroke:none"
           id="path137" />
        <path
           d="m 4374.87,2708.09 c 460.48,440.69 1002.14,801.46 1576.88,1129.7 -544.7,-361.59 -1068.97,-738.69 -1537.17,-1158.38 -13.24,9.56 -26.47,19.13 -39.71,28.68"
           style="fill:#769a2a;fill-opacity:1;fill-rule:evenodd;stroke:none"
           id="path139" />
        <path
           d="m 4637.07,2893.85 c -253.68,252.47 -428.06,485.77 -468.06,686.61 83.56,-237.13 274,-440.63 507.53,-630.55 -13.16,-18.68 -26.3,-37.37 -39.47,-56.06"
           style="fill:#769a2a;fill-opacity:1;fill-rule:evenodd;stroke:none"
           id="path141" />
        <path
           d="m 4974.07,3172.31 c -96.15,311.75 -130.86,581.95 -61.41,781.69 -49.21,-246.68 15.63,-493.77 126.44,-741.03 -21.67,-13.55 -43.35,-27.12 -65.03,-40.66"
           style="fill:#769a2a;fill-opacity:1;fill-rule:evenodd;stroke:none"
           id="path143" />
        <path
           d="m 4930.81,3129.18 c 267.23,-187.14 513.76,-303.06 725.16,-298.26 -249.87,28.84 -465.17,166.38 -666.51,347.71 -19.53,-16.47 -39.09,-32.96 -58.65,-49.45"
           style="fill:#769a2a;fill-opacity:1;fill-rule:evenodd;stroke:none"
           id="path145" />
        <path
           d="m 4500.26,2791.24 c 208.92,-248.16 414.75,-420.14 615.4,-462.92 -229.17,85.24 -400.54,271.88 -548.61,499.36 -22.26,-12.15 -44.53,-24.29 -66.79,-36.44"
           style="fill:#769a2a;fill-opacity:1;fill-rule:evenodd;stroke:none"
           id="path147" />
        <path
           d="m 3035.51,1765.28 c 1662.44,0 3018.32,37.19 3018.32,82.8 0,45.63 -1355.88,82.81 -3018.32,82.81 -1662.45,0 -3018.3225,-37.18 -3018.3225,-82.81 0,-45.61 1355.8725,-82.8 3018.3225,-82.8"
           style="fill:#556f27;fill-opacity:1;fill-rule:evenodd;stroke:none"
           id="path149" />
        <path
           d="m 798.793,1837.1 3369.627,15.43 260.6,849.41 -944.17,1479.58 -923.37,-982.7 -1814.257,-754.26 51.57,-607.46"
           style="fill:#556f27;fill-opacity:1;fill-rule:evenodd;stroke:none"
           id="path151" />
        <path
           d="m 3501.2,4229.31 c 219.14,59.5 436.34,-37.87 485.1,-217.46 48.75,-179.6 -89.41,-373.43 -308.57,-432.92 -219.17,-59.49 -436.36,37.89 -485.11,217.47 -48.74,179.6 89.39,373.42 308.58,432.91"
           style="fill:#769a2a;fill-opacity:1;fill-rule:evenodd;stroke:none"
           id="path153" />
        <path
           d="m 3318.43,3429.76 c 219.17,59.49 436.36,-37.85 485.11,-217.46 48.74,-179.61 -89.4,-373.44 -308.57,-432.93 -219.17,-59.49 -436.35,37.89 -485.11,217.48 -48.75,179.6 89.4,373.42 308.57,432.91"
           style="fill:#769a2a;fill-opacity:1;fill-rule:evenodd;stroke:none"
           id="path155" />
        <path
           d="m 4100.85,3486.87 c 219.16,59.49 436.36,-37.85 485.13,-217.46 48.74,-179.61 -89.42,-373.44 -308.58,-432.93 -219.17,-59.48 -436.36,37.89 -485.11,217.48 -48.75,179.61 89.38,373.41 308.56,432.91"
           style="fill:#769a2a;fill-opacity:1;fill-rule:evenodd;stroke:none"
           id="path157" />
        <path
           d="m 4443.51,2761.57 c 219.18,59.48 436.36,-37.88 485.12,-217.48 48.75,-179.59 -89.4,-373.42 -308.56,-432.91 -219.17,-59.48 -436.36,37.87 -485.11,217.48 -48.76,179.59 89.38,373.42 308.55,432.91"
           style="fill:#769a2a;fill-opacity:1;fill-rule:evenodd;stroke:none"
           id="path159" />
        <path
           d="m 2168.23,3424.55 c 219.17,59.49 436.36,-37.85 485.11,-217.46 48.74,-179.6 -89.38,-373.43 -308.57,-432.9 -219.14,-59.51 -436.36,37.87 -485.11,217.46 -48.74,179.6 89.4,373.41 308.57,432.9"
           style="fill:#769a2a;fill-opacity:1;fill-rule:evenodd;stroke:none"
           id="path161" />
        <path
           d="m 2149.09,2598.89 c 219.14,59.5 436.36,-37.85 485.1,-217.45 48.75,-179.61 -89.4,-373.44 -308.57,-432.93 -219.16,-59.49 -436.36,37.88 -485.11,217.47 -48.74,179.61 89.39,373.42 308.58,432.91"
           style="fill:#769a2a;fill-opacity:1;fill-rule:evenodd;stroke:none"
           id="path163" />
        <path
           d="m 1412.46,3012.43 c 219.16,59.49 436.36,-37.85 485.13,-217.45 48.74,-179.61 -89.43,-373.42 -308.58,-432.91 -219.18,-59.51 -436.37,37.87 -485.11,217.45 -48.76,179.61 89.39,373.42 308.56,432.91"
           style="fill:#769a2a;fill-opacity:1;fill-rule:evenodd;stroke:none"
           id="path165" />
        <path
           d="m 766.129,2510.22 c 226.836,11 418.041,-130.75 427.051,-316.64 9.02,-185.88 -167.55,-345.48 -394.387,-356.48 -226.824,-11.01 -418.027,130.75 -427.047,316.62 -9.016,185.9 167.551,345.49 394.383,356.5"
           style="fill:#769a2a;fill-opacity:1;fill-rule:evenodd;stroke:none"
           id="path167" />
        <path
           d="m 411.191,2156.54 c 226.485,0 411.204,151.38 411.204,336.94 0,185.59 -184.719,336.97 -411.204,336.97 C 184.707,2830.45 0,2679.07 0,2493.48 0,2307.92 184.707,2156.54 411.191,2156.54"
           style="fill:#87b027;fill-opacity:1;fill-rule:evenodd;stroke:none"
           id="path169" />
        <path
           d="m 365.523,2405.72 c 124.25,0 225.59,83.05 225.59,184.86 0,101.83 -101.34,184.87 -225.59,184.87 -124.257,0 -225.601,-83.04 -225.601,-184.87 0,-101.81 101.344,-184.86 225.601,-184.86"
           style="fill:#9ac421;fill-opacity:1;fill-rule:evenodd;stroke:none"
           id="path171" />
        <path
           d="m 3263.42,4551.53 c 161.12,160.06 398.07,182.77 529.21,50.75 131.15,-132.02 106.88,-368.79 -54.25,-528.86 -161.11,-160.04 -398.03,-182.76 -529.19,-50.74 -131.16,132.03 -106.88,368.8 54.23,528.85"
           style="fill:#87b027;fill-opacity:1;fill-rule:evenodd;stroke:none"
           id="path173" />
        <path
           d="m 3269.78,4480.32 c 88.39,87.81 218.4,100.28 290.36,27.85 71.94,-72.44 58.62,-202.34 -29.78,-290.16 -88.4,-87.8 -218.38,-100.26 -290.33,-27.83 -71.94,72.43 -58.64,202.33 29.75,290.14"
           style="fill:#9ac421;fill-opacity:1;fill-rule:evenodd;stroke:none"
           id="path175" />
        <path
           d="m 3738.56,3824.63 c 219.17,59.49 436.37,-37.86 485.11,-217.47 48.75,-179.6 -89.4,-373.43 -308.57,-432.92 -219.16,-59.49 -436.36,37.89 -485.11,217.48 -48.74,179.6 89.39,373.42 308.57,432.91"
           style="fill:#87b027;fill-opacity:1;fill-rule:evenodd;stroke:none"
           id="path177" />
        <path
           d="m 3708.9,3759.6 c 120.22,32.62 239.39,-20.79 266.14,-119.32 26.75,-98.54 -49.04,-204.87 -169.29,-237.51 -120.25,-32.65 -239.41,20.78 -266.15,119.31 -26.75,98.53 49.04,204.87 169.3,237.52"
           style="fill:#9ac421;fill-opacity:1;fill-rule:evenodd;stroke:none"
           id="path179" />
        <path
           d="m 4079.09,3180.91 c 219.16,59.52 436.37,-37.86 485.11,-217.45 48.75,-179.61 -89.41,-373.41 -308.57,-432.91 -219.17,-59.49 -436.36,37.85 -485.11,217.46 -48.75,179.6 89.4,373.44 308.57,432.9"
           style="fill:#87b027;fill-opacity:1;fill-rule:evenodd;stroke:none"
           id="path181" />
        <path
           d="m 4049.42,3115.87 c 120.25,32.64 239.42,-20.77 266.15,-119.3 26.74,-98.54 -49.05,-204.87 -169.29,-237.51 -120.24,-32.64 -239.4,20.78 -266.15,119.31 -26.75,98.53 49.04,204.87 169.29,237.5"
           style="fill:#9ac421;fill-opacity:1;fill-rule:evenodd;stroke:none"
           id="path183" />
        <path
           d="m 4119.04,2520.37 c 219.17,59.48 436.37,-37.85 485.11,-217.48 48.77,-179.59 -89.4,-373.41 -308.54,-432.91 -219.17,-59.49 -436.38,37.88 -485.14,217.48 -48.74,179.59 89.4,373.42 308.57,432.91"
           style="fill:#87b027;fill-opacity:1;fill-rule:evenodd;stroke:none"
           id="path185" />
        <path
           d="m 4089.38,2455.34 c 120.24,32.63 239.41,-20.79 266.14,-119.33 26.75,-98.52 -49.05,-204.86 -169.29,-237.51 -120.24,-32.64 -239.38,20.78 -266.15,119.32 -26.75,98.53 49.04,204.87 169.3,237.52"
           style="fill:#9ac421;fill-opacity:1;fill-rule:evenodd;stroke:none"
           id="path187" />
        <path
           d="m 3524.13,2506.46 c 225.2,29.36 427.27,-96.44 451.3,-280.98 24.06,-184.54 -139.02,-357.93 -364.21,-387.27 -225.19,-29.35 -427.26,96.44 -451.3,281 -24.04,184.54 139.01,357.92 364.21,387.25"
           style="fill:#87b027;fill-opacity:1;fill-rule:evenodd;stroke:none"
           id="path189" />
        <path
           d="m 3485.95,2446.04 c 123.56,16.1 234.39,-52.95 247.59,-154.17 13.2,-101.25 -76.25,-196.38 -199.81,-212.48 -123.55,-16.1 -234.41,52.91 -247.59,154.16 -13.21,101.24 76.25,196.37 199.81,212.49"
           style="fill:#9ac421;fill-opacity:1;fill-rule:evenodd;stroke:none"
           id="path191" />
        <path
           d="m 2910.64,4151.18 c 213.59,77.17 438,-2.18 501.21,-177.21 63.24,-175.04 -58.66,-379.46 -272.25,-456.62 -213.58,-77.14 -438,2.2 -501.21,177.22 -63.24,175.03 58.66,379.46 272.25,456.61"
           style="fill:#87b027;fill-opacity:1;fill-rule:evenodd;stroke:none"
           id="path193" />
        <path
           d="m 2886.36,4083.94 c 117.19,42.33 240.3,-1.2 275,-97.22 34.68,-96.03 -32.21,-208.2 -149.37,-250.51 -117.19,-42.35 -240.3,1.18 -274.99,97.21 -34.69,96.02 32.18,208.19 149.36,250.52"
           style="fill:#9ac421;fill-opacity:1;fill-rule:evenodd;stroke:none"
           id="path195" />
        <path
           d="m 2587.08,3516.82 c 213.57,77.17 438.01,-2.18 501.22,-177.21 63.22,-175.03 -58.68,-379.46 -272.27,-456.61 -213.59,-77.17 -437.98,2.17 -501.21,177.21 -63.22,175.01 58.65,379.45 272.26,456.61"
           style="fill:#87b027;fill-opacity:1;fill-rule:evenodd;stroke:none"
           id="path197" />
        <path
           d="m 2562.81,3449.57 c 117.19,42.34 240.3,-1.18 274.99,-97.22 34.69,-96.03 -32.2,-208.19 -149.38,-250.52 -117.18,-42.33 -240.29,1.21 -274.99,97.23 -34.68,96.02 32.18,208.18 149.38,250.51"
           style="fill:#9ac421;fill-opacity:1;fill-rule:evenodd;stroke:none"
           id="path199" />
        <path
           d="m 3095.62,3135.65 c 213.61,77.15 437.99,-2.19 501.23,-177.23 63.23,-175.03 -58.68,-379.46 -272.27,-456.61 -213.59,-77.15 -438,2.18 -501.21,177.21 -63.24,175.02 58.68,379.45 272.25,456.63"
           style="fill:#87b027;fill-opacity:1;fill-rule:evenodd;stroke:none"
           id="path201" />
        <path
           d="m 3071.35,3068.39 c 117.19,42.33 240.29,-1.2 274.99,-97.23 34.69,-96.03 -32.19,-208.18 -149.36,-250.51 -117.2,-42.33 -240.31,1.2 -275,97.23 -34.69,96.01 32.2,208.17 149.37,250.51"
           style="fill:#9ac421;fill-opacity:1;fill-rule:evenodd;stroke:none"
           id="path203" />
        <path
           d="m 2796.23,2497.26 c 226.69,13.77 419.6,-125.65 430.88,-311.41 11.28,-185.77 -163.34,-347.5 -390.02,-361.26 -226.69,-13.76 -419.59,125.65 -430.86,311.38 -11.3,185.77 163.32,347.51 390,361.29"
           style="fill:#87b027;fill-opacity:1;fill-rule:evenodd;stroke:none"
           id="path205" />
        <path
           d="m 2753.99,2439.59 c 124.35,7.55 230.19,-68.95 236.38,-170.85 6.19,-101.92 -89.62,-190.65 -213.98,-198.2 -124.35,-7.55 -230.2,68.94 -236.38,170.85 -6.19,101.92 89.61,190.64 213.98,198.2"
           style="fill:#9ac421;fill-opacity:1;fill-rule:evenodd;stroke:none"
           id="path207" />
        <path
           d="m 1739.7,2514.34 c 226.15,20.61 423.18,-112.96 440.06,-298.28 16.88,-185.34 -152.78,-352.26 -378.96,-372.87 -226.16,-20.58 -423.18,112.94 -440.04,298.29 -16.88,185.32 152.78,352.27 378.94,372.86"
           style="fill:#87b027;fill-opacity:1;fill-rule:evenodd;stroke:none"
           id="path209" />
        <path
           d="m 1699.2,2455.41 c 124.08,11.31 232.18,-61.94 241.44,-163.64 9.26,-101.69 -83.84,-193.27 -207.92,-204.58 -124.07,-11.28 -232.16,61.99 -241.42,163.66 -9.26,101.69 83.81,193.26 207.9,204.56"
           style="fill:#9ac421;fill-opacity:1;fill-rule:evenodd;stroke:none"
           id="path211" />
        <path
           d="m 2105.21,3034.05 c 226.16,20.58 423.18,-112.94 440.04,-298.29 16.88,-185.31 -152.78,-352.27 -378.93,-372.85 -226.16,-20.59 -423.19,112.95 -440.07,298.29 -16.88,185.32 152.78,352.25 378.96,372.85"
           style="fill:#87b027;fill-opacity:1;fill-rule:evenodd;stroke:none"
           id="path213" />
        <path
           d="m 2064.72,2975.13 c 124.07,11.31 232.16,-61.96 241.42,-163.65 9.26,-101.68 -83.81,-193.25 -207.9,-204.55 -124.09,-11.31 -232.19,61.96 -241.44,163.63 -9.26,101.69 83.83,193.27 207.92,204.57"
           style="fill:#9ac421;fill-opacity:1;fill-rule:evenodd;stroke:none"
           id="path215" />
        <path
           d="m 1105.77,2899.84 c 226.15,20.61 423.18,-112.95 440.04,-298.29 16.88,-185.32 -152.78,-352.26 -378.93,-372.85 -226.177,-20.58 -423.196,112.94 -440.071,298.29 -16.871,185.31 152.785,352.25 378.961,372.85"
           style="fill:#87b027;fill-opacity:1;fill-rule:evenodd;stroke:none"
           id="path217" />
        <path
           d="m 1065.26,2840.91 c 124.08,11.3 232.18,-61.95 241.43,-163.64 9.26,-101.7 -83.82,-193.27 -207.9,-204.55 -124.083,-11.31 -232.181,61.96 -241.435,163.63 -9.257,101.67 83.829,193.28 207.905,204.56"
           style="fill:#9ac421;fill-opacity:1;fill-rule:evenodd;stroke:none"
           id="path219" />
      </g>
    </g>
  </g>
  <g
     style="display:inline"
     id="layer1"
     inkscape:groupmode="layer"
     inkscape:label="Text"
     transform="translate(-40.37333,-72.020736)">
    <path
       d="m 52.091314,76.782332 -0.702797,0.03101 q -0.211873,-0.0155 -0.211873,-0.191203 0,-0.273884 0.599445,-0.289387 0.191202,-0.0052 0.423746,-0.0052 h 0.279051 q 0.289387,-1.193722 0.465087,-1.684647 0.356566,-1.002519 0.862993,-1.529617 0.511596,-0.532266 1.390092,-0.532266 0.878497,0 0.878497,0.315226 0,0.170531 -0.211873,0.310057 -0.723468,-0.05168 -0.847491,-0.05168 -0.769976,0 -1.297074,0.91467 -0.52193,0.909502 -0.723468,2.258253 0.341063,0.01033 0.449584,0.01033 l 0.232543,-0.0052 0.418578,-0.0052 h 0.113687 q 0.05168,0 0.129191,0.01033 0.294555,0 0.294555,0.201537 0,0.258382 -0.506428,0.279052 -0.139526,0.0052 -0.299722,0.0052 h -0.382404 q -0.217041,0 -0.558104,-0.01033 -0.201538,1.111039 -0.330728,1.968865 -0.124023,0.852659 -0.186035,1.209225 -0.05684,0.351399 -0.124023,0.862994 -0.06201,0.506427 -0.201537,1.384924 -0.366902,2.26342 -1.472774,3.172923 -0.687294,0.558103 -1.819005,0.558103 -0.800982,0 -1.467606,-0.382404 -0.263548,-0.155029 -0.408242,-0.30489 -0.144694,-0.149861 -0.144694,-0.237711 0,-0.08785 0.09302,-0.160196 0.09302,-0.07235 0.211872,-0.07235 l 0.06201,0.0155 q 0.589109,0.423745 0.893999,0.527098 0.30489,0.103352 0.800982,0.103352 0.496093,0 0.888832,-0.165364 0.387572,-0.165364 0.682127,-0.449583 0.289387,-0.28422 0.50126,-0.671792 0.211873,-0.382404 0.356566,-0.821652 0.149861,-0.434081 0.248046,-0.904335 0.103353,-0.465087 0.175699,-0.919838 0.07751,-0.454751 0.134359,-0.873329 0.06201,-0.418577 0.134358,-0.759641 0.113688,-0.769976 0.21704,-1.555455 0.103353,-0.78548 0.237711,-1.545121 -0.165364,-0.01033 -0.279052,-0.01033 z"
       style="font-style:normal;font-variant:normal;font-weight:normal;font-stretch:normal;font-size:10.5833px;line-height:1.25;font-family:'Bad Script';-inkscape-font-specification:'Bad Script';fill:#000000;fill-opacity:1;stroke:#000000;stroke-width:0.3;stroke-miterlimit:4;stroke-dasharray:none;stroke-opacity:1"
       id="first-f" />
    <path
       d="m 56.623323,74.508576 q 0.30489,0 0.30489,0.30489 0,0.444416 -0.310058,0.50126 -0.08785,0.0155 -0.191202,0.0155 -0.103352,0 -0.206705,-0.103353 -0.103352,-0.103352 -0.103352,-0.263549 0,-0.165364 0.160196,-0.310057 0.160196,-0.144694 0.346231,-0.144694 z m -0.728635,2.413282 v -0.103353 q 0,-0.07235 -0.07751,-0.351398 0,-0.129191 0.08785,-0.232544 0.08785,-0.10852 0.211873,-0.10852 0.12919,0 0.211872,0.160197 0.08268,0.160196 0.08268,0.351398 0,0.191203 -0.485757,2.284091 -0.485757,2.092889 -0.485757,2.206577 0,0.10852 0.103353,0.10852 0.06718,0 0.191202,-0.12919 0.124023,-0.134359 0.211873,-0.134359 0.170532,0 0.170532,0.217041 0,0.211872 -0.320393,0.372069 -0.320393,0.160196 -0.465087,0.160196 -0.361734,0 -0.361734,-0.578774 0,-0.118855 0.04651,-0.263549 0.05168,-0.149861 0.103353,-0.408243 0.05684,-0.263549 0.155028,-0.713132 0.103353,-0.449584 0.206705,-0.930173 0.108521,-0.480589 0.258382,-1.162716 0.155029,-0.687294 0.155029,-0.744138 z"
       style="font-style:normal;font-variant:normal;font-weight:normal;font-stretch:normal;font-size:10.5833px;line-height:1.25;font-family:'Bad Script';-inkscape-font-specification:'Bad Script';fill:#000000;fill-opacity:1;stroke:#000000;stroke-width:0.3;stroke-miterlimit:4;stroke-dasharray:none;stroke-opacity:1"
       id="first-i" />
    <path
       d="m 57.341623,81.59856 0.237711,-1.260901 q 0.186034,-0.966346 0.253213,-1.369421 0.06718,-0.408242 0.149862,-0.893999 0.08785,-0.490925 0.351398,-1.405595 -0.01033,-0.02584 -0.01033,-0.04651 v -0.05168 q 0,-0.248046 0.191202,-0.356566 0.05684,-0.03617 0.118856,-0.03617 0.222208,0 0.222208,0.320392 0,0.186035 -0.149862,0.671792 -0.149861,0.480589 -0.232543,0.893999 0.07235,-0.118855 0.175699,-0.299722 0.108521,-0.180867 0.335896,-0.527098 0.232543,-0.346231 0.578774,-0.656289 0.351399,-0.315225 0.713133,-0.315225 0.366901,0 0.558104,0.19637 0.07235,0.06718 0.07235,0.170532 0,0.103352 -0.09302,0.186034 -0.09302,0.08268 -0.191202,0.08268 -0.09819,0 -0.191202,-0.05168 -0.09302,-0.05684 -0.206705,-0.05684 -0.113688,0 -0.361734,0.186035 -0.987017,0.7183 -1.627803,2.847362 -0.170531,0.568439 -0.206705,0.785479 -0.03617,0.211873 -0.06201,0.346231 -0.155029,0.831988 -0.475422,0.831988 -0.149861,0 -0.149861,-0.191202 z"
       style="font-style:normal;font-variant:normal;font-weight:normal;font-stretch:normal;font-size:10.5833px;line-height:1.25;font-family:'Bad Script';-inkscape-font-specification:'Bad Script';fill:#000000;fill-opacity:1;stroke:#000000;stroke-width:0.3;stroke-miterlimit:4;stroke-dasharray:none;stroke-opacity:1"
       id="first-r" />
    <path
       d="m 62.679782,76.678979 q -0.516763,0 -0.516763,0.599445 0,0.397907 0.186034,0.821653 0.186035,0.423745 0.315226,0.676959 0.501259,0.997352 0.501259,1.529617 0,0.527098 -0.320392,0.899167 -0.320393,0.37207 -0.925006,0.444416 h -0.06718 q -0.583942,0 -0.847491,-0.7183 -0.01033,-0.02584 -0.01033,-0.04651 v -0.05168 q 0,-0.10852 0.06718,-0.175699 0.06718,-0.07235 0.144694,-0.08785 h 0.05684 q 0.103352,0 0.165364,0.08268 0.06718,0.08268 0.124023,0.186035 0.05684,0.09819 0.124023,0.180867 0.06718,0.08268 0.232543,0.08268 0.351399,0 0.558104,-0.21704 0.211873,-0.222208 0.211873,-0.490925 0,-0.268717 -0.07751,-0.50126 -0.129191,-0.397907 -0.444416,-0.992184 -0.527098,-0.976682 -0.527098,-1.519282 0,-0.542601 0.273885,-0.888832 0.273884,-0.346231 0.775144,-0.346231 0.310057,0 0.532265,0.129191 0.418578,0.242878 0.418578,0.547768 0,0.299722 -0.253214,0.299722 -0.09302,0 -0.155029,-0.06718 -0.05684,-0.07235 -0.124023,-0.155029 -0.180867,-0.222208 -0.418577,-0.222208 z"
       style="font-style:normal;font-variant:normal;font-weight:normal;font-stretch:normal;font-size:10.5833px;line-height:1.25;font-family:'Bad Script';-inkscape-font-specification:'Bad Script';fill:#000000;fill-opacity:1;stroke:#000000;stroke-width:0.3;stroke-miterlimit:4;stroke-dasharray:none;stroke-opacity:1"
       id="first-s" />
    <path
       d="m 65.351445,76.751326 c -0.292832,0 -0.546046,0.01723 -0.759641,0.05168 -0.141249,-0.01378 -0.211873,-0.07407 -0.211873,-0.180867 0,-0.06201 0.02584,-0.125747 0.07752,-0.191202 0.05167,-0.06546 0.120575,-0.103356 0.206705,-0.113687 l 0.764809,0.02067 c 0.01378,-0.07235 0.02756,-0.158474 0.04134,-0.258381 0.01723,-0.103353 0.04479,-0.251491 0.08268,-0.444416 0.04134,-0.19637 0.09646,-0.373792 0.165364,-0.532266 0.07235,-0.158474 0.165364,-0.237711 0.279051,-0.237711 0.113688,0 0.170532,0.06373 0.170532,0.191203 v 0.06718 c -0.09991,0.42719 -0.184312,0.828542 -0.253214,1.204057 l 0.525194,-0.05191 c 0.136235,-0.01346 0.941005,0.149291 0.999571,0.190633 0.06201,0.04134 0.03514,0.08062 0.03514,0.142627 0,0.120578 -0.07407,0.199815 -0.222208,0.237711 -0.07579,0.02067 -0.442359,-0.07736 -0.673179,-0.07736 -0.227376,0 -0.478482,0.03372 -0.747199,0.01307 -0.06545,0.344509 -0.211869,0.988739 -0.439248,1.932692 -0.223931,0.943953 -0.335896,1.553733 -0.335896,1.82934 0,0.272162 0.03101,0.451306 0.09302,0.537433 0.04479,0.05512 0.120578,0.08268 0.227375,0.08268 0.106798,0 0.198093,-0.03101 0.273884,-0.09302 0.07579,-0.06201 0.144694,-0.129192 0.206706,-0.201537 0.06201,-0.07579 0.122302,-0.144694 0.180866,-0.206705 0.06201,-0.06201 0.129193,-0.09302 0.201538,-0.09302 0.141249,0 0.211873,0.07062 0.211873,0.211873 0,0.07235 -0.07235,0.192925 -0.217041,0.361734 -0.141248,0.165364 -0.272161,0.292832 -0.392739,0.382404 -0.120578,0.08957 -0.296277,0.134359 -0.527098,0.134359 -0.230821,0 -0.389295,-0.03962 -0.475422,-0.118856 -0.179145,-0.158474 -0.268717,-0.411688 -0.268717,-0.759641 0,-0.179145 0.02067,-0.391017 0.06201,-0.635618 l 0.09819,-0.599445 c 0.06546,-0.296277 0.124026,-0.554659 0.175699,-0.775144 0.05167,-0.223931 0.09646,-0.4203 0.134359,-0.589109 0.03789,-0.168809 0.08785,-0.387572 0.149861,-0.656289 0.06201,-0.272161 0.115412,-0.530543 0.160196,-0.775144 z"
       style="font-style:normal;font-variant:normal;font-weight:normal;font-stretch:normal;font-size:10.5833px;line-height:1.25;font-family:'Bad Script';-inkscape-font-specification:'Bad Script';fill:#000000;fill-opacity:1;stroke:#000000;stroke-width:0.3;stroke-miterlimit:4;stroke-dasharray:none;stroke-opacity:1"
       id="first-t"
       sodipodi:nodetypes="scsscccccssccscscsccscssccsscsscscccscss" />
    <path
       d="m 54.527033,86.827217 -0.702798,0.03101 q -0.211872,-0.0155 -0.211872,-0.191202 0,-0.273884 0.599444,-0.289387 0.191203,-0.0052 0.423746,-0.0052 h 0.279052 q 0.289387,-1.193721 0.465086,-1.684646 0.356566,-1.00252 0.862994,-1.529617 0.511595,-0.532266 1.390091,-0.532266 0.878497,0 0.878497,0.315225 0,0.170532 -0.211873,0.310058 -0.723468,-0.05168 -0.847491,-0.05168 -0.769976,0 -1.297074,0.91467 -0.52193,0.909502 -0.723468,2.258252 0.341064,0.01034 0.449584,0.01034 l 0.232543,-0.0052 0.418578,-0.0052 h 0.113688 q 0.05168,0 0.12919,0.01034 0.294555,0 0.294555,0.201537 0,0.258381 -0.506427,0.279052 -0.139526,0.0052 -0.299723,0.0052 h -0.382404 q -0.217041,0 -0.558104,-0.01034 -0.201537,1.11104 -0.330728,1.968866 -0.124023,0.852659 -0.186035,1.209225 -0.05684,0.351398 -0.124023,0.862993 -0.06201,0.506428 -0.201537,1.384924 -0.366902,2.263421 -1.472774,3.172923 -0.687294,0.558104 -1.819004,0.558104 -0.800982,0 -1.467606,-0.382404 -0.263549,-0.155029 -0.408243,-0.30489 -0.144693,-0.149862 -0.144693,-0.237711 0,-0.08785 0.09302,-0.160197 0.09302,-0.07235 0.211873,-0.07235 l 0.06201,0.0155 q 0.58911,0.423746 0.894,0.527098 0.30489,0.103353 0.800982,0.103353 0.496092,0 0.888831,-0.165364 0.387573,-0.165364 0.682127,-0.449584 0.289387,-0.284219 0.50126,-0.671791 0.211873,-0.382405 0.356566,-0.821653 0.149861,-0.43408 0.248046,-0.904334 0.103353,-0.465087 0.1757,-0.919838 0.07751,-0.454751 0.134358,-0.873329 0.06201,-0.418578 0.134358,-0.759641 0.113688,-0.769977 0.217041,-1.555456 0.103352,-0.785479 0.23771,-1.54512 -0.165364,-0.01034 -0.279051,-0.01034 z"
       style="font-style:normal;font-variant:normal;font-weight:normal;font-stretch:normal;font-size:10.5833px;line-height:1.25;font-family:'Bad Script';-inkscape-font-specification:'Bad Script';fill:#000000;fill-opacity:1;stroke:#000000;stroke-width:0.3;stroke-miterlimit:4;stroke-dasharray:none;stroke-opacity:1"
       id="fruits-f" />
    <path
       d="m 57.503586,91.643445 0.23771,-1.260901 q 0.186035,-0.966346 0.253214,-1.369421 0.06718,-0.408243 0.149861,-0.894 0.08785,-0.490924 0.351399,-1.405594 -0.01033,-0.02584 -0.01033,-0.04651 v -0.05168 q 0,-0.248046 0.191202,-0.356566 0.05684,-0.03617 0.118855,-0.03617 0.222208,0 0.222208,0.320393 0,0.186035 -0.149861,0.671792 -0.149861,0.480589 -0.232543,0.893999 0.07235,-0.118855 0.175699,-0.299722 0.10852,-0.180867 0.335896,-0.527098 0.232543,-0.346231 0.578774,-0.656289 0.351399,-0.315225 0.713133,-0.315225 0.366901,0 0.558103,0.19637 0.07235,0.06718 0.07235,0.170531 0,0.103353 -0.09302,0.186035 -0.09302,0.08268 -0.191202,0.08268 -0.09819,0 -0.191203,-0.05168 -0.09302,-0.05684 -0.206705,-0.05684 -0.113688,0 -0.361734,0.186034 -0.987016,0.718301 -1.627802,2.847363 -0.170532,0.568439 -0.206705,0.785479 -0.03617,0.211873 -0.06201,0.346231 -0.155028,0.831988 -0.475421,0.831988 -0.149861,0 -0.149861,-0.191202 z"
       style="font-style:normal;font-variant:normal;font-weight:normal;font-stretch:normal;font-size:10.5833px;line-height:1.25;font-family:'Bad Script';-inkscape-font-specification:'Bad Script';fill:#000000;fill-opacity:1;stroke:#000000;stroke-width:0.3;stroke-miterlimit:4;stroke-dasharray:none;stroke-opacity:1"
       id="fruits-r" />
    <path
       d="m 63.932113,91.917329 q -0.315225,0 -0.315225,-0.847491 0,-0.547768 0.103353,-1.121375 0.10852,-0.573606 0.222208,-1.121375 -0.191202,0.341063 -0.361734,0.702797 -0.170532,0.356567 -0.299723,0.578775 -0.12919,0.21704 -0.206705,0.366901 -0.666623,1.271236 -1.24023,1.271236 -0.568439,0 -0.568439,-1.13171 0,-1.452103 0.459919,-3.291778 l 0.160196,-0.640786 q 0.09819,-0.351399 0.330728,-0.351399 0.134359,0 0.180867,0.180867 -0.0155,0.165364 -0.08268,0.30489 -0.06718,0.139526 -0.09819,0.310058 -0.454751,2.294426 -0.454751,3.131582 l -0.01033,0.496092 q 0,0.423745 0.139526,0.423745 0.403075,0 1.369421,-1.901686 0.149861,-0.289387 0.366901,-0.728636 0.217041,-0.439248 0.341064,-0.666624 0.124023,-0.232543 0.222208,-0.444415 0.408242,-0.894 0.702797,-0.894 0.180867,0 0.180867,0.201538 0,0.196369 -0.201537,0.651121 -0.201538,0.454751 -0.330729,0.930172 -0.372069,1.32808 -0.459918,2.775016 v 0.05684 q 0,0.155029 0.06201,0.232543 0.06718,0.07235 0.09819,0.10852 0.03101,0.03101 0.03101,0.139526 0,0.103353 -0.124023,0.191202 -0.118856,0.08785 -0.217041,0.08785 z"
       style="font-style:normal;font-variant:normal;font-weight:normal;font-stretch:normal;font-size:10.5833px;line-height:1.25;font-family:'Bad Script';-inkscape-font-specification:'Bad Script';fill:#000000;fill-opacity:1;stroke:#000000;stroke-width:0.3;stroke-miterlimit:4;stroke-dasharray:none;stroke-opacity:1"
       id="fruits-u" />
    <path
       d="m 67.327245,84.553461 q 0.30489,0 0.30489,0.30489 0,0.444416 -0.310058,0.50126 -0.08785,0.0155 -0.191202,0.0155 -0.103352,0 -0.206705,-0.103352 -0.103353,-0.103353 -0.103353,-0.263549 0,-0.165364 0.160197,-0.310058 0.160196,-0.144693 0.346231,-0.144693 z M 66.59861,86.966742 V 86.86339 q 0,-0.07235 -0.07752,-0.351399 0,-0.12919 0.08785,-0.232543 0.08785,-0.10852 0.211872,-0.10852 0.129191,0 0.211873,0.160196 0.08268,0.160197 0.08268,0.351399 0,0.191202 -0.485757,2.284091 -0.485757,2.092889 -0.485757,2.206577 0,0.10852 0.103353,0.10852 0.06718,0 0.191202,-0.129191 0.124023,-0.134358 0.211873,-0.134358 0.170531,0 0.170531,0.21704 0,0.211873 -0.320392,0.372069 -0.320393,0.160197 -0.465087,0.160197 -0.361734,0 -0.361734,-0.578774 0,-0.118856 0.04651,-0.263549 0.05168,-0.149862 0.103353,-0.408243 0.05684,-0.263549 0.155028,-0.713132 0.103353,-0.449584 0.206705,-0.930173 0.108521,-0.48059 0.258382,-1.162716 0.155029,-0.687295 0.155029,-0.744139 z"
       style="font-style:normal;font-variant:normal;font-weight:normal;font-stretch:normal;font-size:10.5833px;line-height:1.25;font-family:'Bad Script';-inkscape-font-specification:'Bad Script';fill:#000000;fill-opacity:1;stroke:#000000;stroke-width:0.3;stroke-miterlimit:4;stroke-dasharray:none;stroke-opacity:1"
       id="fruits-i" />
    <path
       d="m 69.027392,86.796211 q -0.439248,0 -0.759641,0.05168 -0.211872,-0.02067 -0.211872,-0.180867 0,-0.09302 0.07751,-0.191202 0.07751,-0.09819 0.206705,-0.113688 l 0.764809,0.02067 q 0.02067,-0.10852 0.04134,-0.258382 0.02584,-0.155028 0.08268,-0.444416 0.06201,-0.294554 0.165364,-0.532265 0.10852,-0.237711 0.279052,-0.237711 0.170531,0 0.170531,0.191202 v 0.06718 q -0.149861,0.640786 -0.253213,1.204057 h 0.759641 q 0.403075,0 0.490924,0.06201 0.09302,0.06201 0.09302,0.155029 0,0.180867 -0.222208,0.237711 -0.113688,0.03101 -0.459919,0.03101 -0.341063,0 -0.744138,-0.03101 -0.09819,0.516762 -0.439249,1.932692 -0.335895,1.41593 -0.335895,1.82934 0,0.408242 0.09302,0.537433 0.06718,0.08268 0.227376,0.08268 0.160196,0 0.273884,-0.09302 0.113688,-0.09302 0.206705,-0.201538 0.09302,-0.113687 0.180867,-0.206705 0.09302,-0.09302 0.201537,-0.09302 0.211873,0 0.211873,0.211873 0,0.10852 -0.21704,0.361734 -0.211873,0.248046 -0.39274,0.382404 -0.180867,0.134358 -0.527098,0.134358 -0.346231,0 -0.475422,-0.118855 -0.268716,-0.237711 -0.268716,-0.759641 0,-0.268717 0.06201,-0.635618 l 0.09819,-0.599445 q 0.09819,-0.444416 0.1757,-0.775144 0.07751,-0.335896 0.134358,-0.58911 0.05684,-0.253213 0.149861,-0.656288 0.09302,-0.408243 0.160196,-0.775144 z"
       style="font-style:normal;font-variant:normal;font-weight:normal;font-stretch:normal;font-size:10.5833px;line-height:1.25;font-family:'Bad Script';-inkscape-font-specification:'Bad Script';fill:#000000;fill-opacity:1;stroke:#000000;stroke-width:0.3;stroke-miterlimit:4;stroke-dasharray:none;stroke-opacity:1"
       id="fruits-t" />
    <path
       d="m 72.970293,86.723864 q -0.516763,0 -0.516763,0.599445 0,0.397907 0.186035,0.821652 0.186034,0.423746 0.315225,0.67696 0.50126,0.997351 0.50126,1.529617 0,0.527098 -0.320393,0.899167 -0.320393,0.372069 -0.925005,0.444416 h -0.06718 q -0.583942,0 -0.847491,-0.7183 -0.01034,-0.02584 -0.01034,-0.04651 v -0.05168 q 0,-0.10852 0.06718,-0.175699 0.06718,-0.07235 0.144693,-0.08785 h 0.05684 q 0.103353,0 0.165364,0.08268 0.06718,0.08268 0.124023,0.186035 0.05684,0.09818 0.124023,0.180867 0.06718,0.08268 0.232543,0.08268 0.351399,0 0.558104,-0.217041 0.211873,-0.222208 0.211873,-0.490924 0,-0.268717 -0.07752,-0.50126 -0.12919,-0.397907 -0.444415,-0.992184 -0.527098,-0.976682 -0.527098,-1.519283 0,-0.542601 0.273884,-0.888832 0.273884,-0.346231 0.775144,-0.346231 0.310057,0 0.532265,0.129191 0.418578,0.242879 0.418578,0.547769 0,0.299722 -0.253214,0.299722 -0.09302,0 -0.155028,-0.06718 -0.05684,-0.07235 -0.124023,-0.155029 -0.180867,-0.222208 -0.418578,-0.222208 z"
       style="font-style:normal;font-variant:normal;font-weight:normal;font-stretch:normal;font-size:10.5833px;line-height:1.25;font-family:'Bad Script';-inkscape-font-specification:'Bad Script';fill:#000000;fill-opacity:1;stroke:#000000;stroke-width:0.3;stroke-miterlimit:4;stroke-dasharray:none;stroke-opacity:1"
       id="fruits-s" />
    <g
       style="font-size:6.35px;line-height:1.25;font-family:'Bad Script';-inkscape-font-specification:'Bad Script';stroke-width:0.265;stroke-miterlimit:4;stroke-dasharray:none"
       id="studio"
       aria-label="studio">
      <path
         id="path927"
         style="font-style:normal;font-variant:normal;font-weight:300;font-stretch:condensed;font-size:6.35px;font-family:'Open Sans Condensed';-inkscape-font-specification:'Open Sans Condensed, Light Condensed';stroke-width:0.265;stroke-miterlimit:4;stroke-dasharray:none"
         d="m 68.379291,95.531114 q 0,0.42478 -0.223242,0.666626 -0.223243,0.238745 -0.644922,0.238745 -0.229444,0 -0.403076,-0.05891 -0.173633,-0.05891 -0.269751,-0.130224 v -0.344165 q 0.114721,0.114721 0.303857,0.186035 0.189136,0.06821 0.387573,0.06821 0.260449,0 0.409278,-0.170533 0.148828,-0.170532 0.148828,-0.455786 0,-0.223242 -0.108521,-0.375171 -0.10542,-0.155029 -0.406177,-0.350366 -0.344165,-0.217041 -0.471289,-0.347266 -0.124023,-0.130224 -0.195337,-0.291455 -0.06821,-0.16123 -0.06821,-0.384472 0,-0.362769 0.244946,-0.598413 0.244946,-0.238745 0.623218,-0.238745 0.406176,0 0.679028,0.192236 l -0.151929,0.257349 q -0.254248,-0.170533 -0.539502,-0.170533 -0.260449,0 -0.415478,0.15503 -0.15503,0.151928 -0.15503,0.403076 0,0.223242 0.10542,0.375171 0.10542,0.148828 0.446485,0.362768 0.334863,0.220142 0.458886,0.353467 0.124024,0.130225 0.182935,0.291455 0.06201,0.15813 0.06201,0.365869 z" />
      <path
         id="path929"
         style="font-style:normal;font-variant:normal;font-weight:300;font-stretch:condensed;font-size:6.35px;font-family:'Open Sans Condensed';-inkscape-font-specification:'Open Sans Condensed, Light Condensed';stroke-width:0.265;stroke-miterlimit:4;stroke-dasharray:none"
         d="m 69.672235,96.163634 q 0.136426,0 0.241846,-0.03721 v 0.248047 q -0.136426,0.06201 -0.350366,0.06201 -0.520899,0 -0.520899,-0.778247 V 93.270783 H 68.738959 V 93.09715 l 0.297656,-0.08682 0.09612,-0.799951 h 0.204639 v 0.799951 h 0.533301 v 0.260449 h -0.533301 v 2.303735 q 0,0.341065 0.07441,0.465088 0.07441,0.124024 0.260449,0.124024 z" />
      <path
         id="path931"
         style="font-style:normal;font-variant:normal;font-weight:300;font-stretch:condensed;font-size:6.35px;font-family:'Open Sans Condensed';-inkscape-font-specification:'Open Sans Condensed, Light Condensed';stroke-width:0.265;stroke-miterlimit:4;stroke-dasharray:none"
         d="m 70.726434,93.010338 v 2.195215 q 0,0.499194 0.117823,0.728637 0.120923,0.229444 0.368969,0.229444 0.381372,0 0.558106,-0.306958 0.179834,-0.310059 0.179834,-0.998389 v -1.847949 h 0.291455 v 3.364136 h -0.248047 l -0.03721,-0.471289 h -0.02481 q -0.10852,0.257348 -0.300757,0.396875 -0.192236,0.136425 -0.418579,0.136425 -0.406176,0 -0.595312,-0.288354 -0.186035,-0.288355 -0.186035,-0.942578 v -2.195215 z" />
      <path
         id="path933"
         style="font-style:normal;font-variant:normal;font-weight:300;font-stretch:condensed;font-size:6.35px;font-family:'Open Sans Condensed';-inkscape-font-specification:'Open Sans Condensed, Light Condensed';stroke-width:0.265;stroke-miterlimit:4;stroke-dasharray:none"
         d="m 73.969647,96.436485 q -0.979785,0 -0.979785,-1.739428 0,-0.855762 0.244946,-1.302246 0.244946,-0.449585 0.722437,-0.449585 0.226342,0 0.42788,0.130224 0.204639,0.130225 0.325562,0.359668 h 0.02481 l -0.0124,-0.375171 v -1.509985 h 0.294556 v 4.824512 h -0.241846 l -0.0248,-0.471289 h -0.02791 q -0.120923,0.257348 -0.313159,0.396875 -0.192236,0.136425 -0.440283,0.136425 z m 0.0186,-0.257348 q 0.353467,0 0.542603,-0.325562 0.192236,-0.328662 0.192236,-0.964282 v -0.192236 q 0,-0.762745 -0.186035,-1.116211 -0.182934,-0.356568 -0.561206,-0.356568 -0.362768,0 -0.520898,0.381372 -0.15813,0.378272 -0.15813,1.097608 0,0.725537 0.164331,1.100708 0.164331,0.375171 0.527099,0.375171 z" />
      <path
         id="path935"
         style="font-style:normal;font-variant:normal;font-weight:300;font-stretch:condensed;font-size:6.35px;font-family:'Open Sans Condensed';-inkscape-font-specification:'Open Sans Condensed, Light Condensed';stroke-width:0.265;stroke-miterlimit:4;stroke-dasharray:none"
         d="m 76.20827,96.374474 h -0.294556 v -3.364136 h 0.294556 z m -0.337964,-4.297412 q 0,-0.139527 0.05581,-0.217041 0.05891,-0.07752 0.148828,-0.07752 0.08372,0 0.133325,0.07752 0.04961,0.07751 0.04961,0.217041 0,0.133325 -0.04961,0.21394 -0.04961,0.07751 -0.133325,0.07751 -0.08992,0 -0.148828,-0.07751 -0.05581,-0.08062 -0.05581,-0.21394 z" />
      <path
         id="path937"
         style="font-style:normal;font-variant:normal;font-weight:300;font-stretch:condensed;font-size:6.35px;font-family:'Open Sans Condensed';-inkscape-font-specification:'Open Sans Condensed, Light Condensed';stroke-width:0.265;stroke-miterlimit:4;stroke-dasharray:none"
         d="m 78.998798,94.684654 q 0,0.849561 -0.269751,1.302246 -0.266651,0.449585 -0.765845,0.449585 -0.492993,0 -0.756543,-0.449585 -0.260449,-0.452685 -0.260449,-1.302246 0,-1.739428 1.029394,-1.739428 0.483692,0 0.753443,0.455786 0.269751,0.455786 0.269751,1.283642 z m -1.74563,0 q 0,0.728638 0.173633,1.100708 0.173632,0.372071 0.542602,0.372071 0.722437,0 0.722437,-1.472779 0,-1.460376 -0.722437,-1.460376 -0.378271,0 -0.548804,0.365869 -0.167431,0.36587 -0.167431,1.094507 z" />
    </g>
  </g>
  <g
     inkscape:label="Pomegranate"
     id="layer2"
     inkscape:groupmode="layer"
     transform="translate(-40.37333,-72.020736)">
    <g
       transform="matrix(0.0233811,0,0,-0.02426415,65.085674,87.222614)"
       id="pomegranate"
       style="display:inline">
      <g
         id="g72"
         clip-path="url(#clipPath76-6-4)">
        <path
           d="m 308.779,416.459 107.391,5.77 v -3.11 l -92.91,-13.696 z"
           style="fill:#99381d;fill-opacity:1;fill-rule:evenodd;stroke:none"
           id="path128" />
        <path
           sodipodi:nodetypes="ccccc"
           d="M 58.369361,457.44564 514.956,365.01 510.68,353.891 46.77406,424.82284 Z"
           style="fill:#7e2b1a;fill-opacity:1;fill-rule:evenodd;stroke:none"
           id="path130" />
        <path
           sodipodi:nodetypes="cccccc"
           d="M 71.465614,457.12062 511.76,356.698 l -1.08,-2.807 -463.90594,70.93184 11.595301,32.6228 z"
           style="fill:#5c2214;fill-opacity:1;fill-rule:evenodd;stroke:none"
           id="path132" />
        <path
           d="M 175.071,424.329 78.744,451.438 374.257,393.021 190.363,412.694 Z"
           style="fill:#5c2214;fill-opacity:1;fill-rule:evenodd;stroke:none"
           id="path134" />
        <path
           d="m 124.931,424.774 78.476,-103.28 7.269,3.421 -49.394,97.314 z"
           style="fill:#5c2214;fill-opacity:1;fill-rule:evenodd;stroke:none"
           id="path136" />
        <path
           d="m 466.577,376.954 12.404,8.984 c 42.448,30.745 94.742,44.757 146.874,39.356 l -13.445,-4.287 c -11.792,-3.761 -22.635,-10.021 -31.789,-18.354 -25.968,-23.642 -61.783,-33.239 -96.094,-25.749 -5.912,1.291 -13.47,3.296 -17.95,0.05"
           style="fill:#2f9a3f;fill-opacity:1;fill-rule:evenodd;stroke:none"
           id="path138" />
        <path
           d="m 466.577,376.954 12.404,8.984 c 42.448,30.745 94.742,44.757 146.874,39.356 -64.727,-11.211 -105.908,-23.204 -156.572,-47.059 -0.984,-0.279 -1.895,-0.694 -2.706,-1.281"
           style="fill:#267837;fill-opacity:1;fill-rule:evenodd;stroke:none"
           id="path140" />
        <path
           d="m 435.357,386.796 6.076,14.68 c 20.789,50.234 59.372,91.039 108.366,114.604 l -9.549,-11.095 c -8.374,-9.734 -14.553,-21.158 -18.107,-33.495 -10.092,-35.002 -36.515,-62.948 -70.901,-74.98 -5.924,-2.073 -13.689,-4.412 -15.885,-9.714"
           style="fill:#2f9a3f;fill-opacity:1;fill-rule:evenodd;stroke:none"
           id="path142" />
        <path
           d="m 435.357,386.796 6.076,14.68 c 20.789,50.234 59.372,91.039 108.366,114.604 -51.092,-45.088 -80.954,-78.067 -112.747,-126.682 -0.718,-0.78 -1.297,-1.643 -1.695,-2.602"
           style="fill:#267837;fill-opacity:1;fill-rule:evenodd;stroke:none"
           id="path144" />
        <path
           d="m 156.288,452.366 14.954,11.492 c 51.169,39.327 115.044,58.402 179.4,53.576 l -16.399,-5.746 c -14.385,-5.042 -27.511,-13.126 -38.486,-23.702 -31.136,-30.008 -74.88,-43.071 -117.373,-35.052 -7.321,1.381 -16.695,3.583 -22.096,-0.568"
           style="fill:#2f9a3f;fill-opacity:1;fill-rule:evenodd;stroke:none"
           id="path146" />
        <path
           d="m 156.288,452.366 14.954,11.492 c 51.169,39.327 115.044,58.402 179.4,53.576 -79.277,-16.061 -129.544,-32.263 -191.068,-63.397 -1.201,-0.377 -2.308,-0.92 -3.286,-1.671"
           style="fill:#267837;fill-opacity:1;fill-rule:evenodd;stroke:none"
           id="path148" />
        <path
           d="m 117.519,463.388 6.964,18.281 c 23.83,62.557 69.891,114.129 129.369,144.847 l -11.363,-13.99 c -9.968,-12.272 -17.171,-26.549 -21.115,-41.859 -11.197,-43.435 -42.743,-78.755 -84.643,-94.768 -7.219,-2.758 -16.697,-5.908 -19.212,-12.511"
           style="fill:#2f9a3f;fill-opacity:1;fill-rule:evenodd;stroke:none"
           id="path150" />
        <path
           d="m 117.519,463.388 6.964,18.281 c 23.83,62.557 69.891,114.129 129.369,144.847 -61.306,-57.281 -96.908,-98.917 -134.338,-159.866 -0.856,-0.985 -1.54,-2.067 -1.995,-3.262"
           style="fill:#267837;fill-opacity:1;fill-rule:evenodd;stroke:none"
           id="path152" />
        <path
           d="m 232.46,111.035 7.386,-0.061 c 9.654,-0.081 17.459,-7.891 17.533,-17.546 0.084,-10.82 8.829,-19.572 19.649,-19.663 l -5.441,6.958 c -4.343,5.553 -4.339,13.349 0.006,18.9 3.938,5.027 5.285,11.613 3.634,17.783 -1.651,6.17 -6.106,11.204 -12.028,13.594 z"
           style="fill:#f9de1c;fill-opacity:1;fill-rule:evenodd;stroke:none"
           id="path154" />
        <path
           d="m 288.352,151.233 -3.035,-6.734 c -3.967,-8.8 -0.143,-19.158 8.595,-23.268 9.791,-4.604 14.077,-16.21 9.631,-26.076 l -4.041,7.856 c -3.224,6.267 -10.307,9.528 -17.168,7.903 -6.213,-1.471 -12.758,0.065 -17.669,4.147 -4.914,4.082 -7.62,10.234 -7.311,16.613 z"
           style="fill:#f9de1c;fill-opacity:1;fill-rule:evenodd;stroke:none"
           id="path156" />
        <path
           d="m 253.902,148.12 -2.283,-4.018 c -3.014,-5.306 -2.976,-12.123 0.1,-18.525 3.077,-6.404 8.86,-11.698 15.714,-14.389 l -0.011,5.187 c -0.018,9.268 0.688,18.394 2.11,27.303 l 2.576,-2.733 c 6.698,-7.109 10.87,-15.792 11.744,-24.443 l 2.513,2.379 c 8.544,8.083 9.579,21.479 2.586,33.448 -3.954,6.768 -11.564,11.295 -19.062,11.339 -7.497,0.045 -13.295,-4.403 -14.52,-11.142 z"
           style="fill:#551b15;fill-opacity:1;fill-rule:evenodd;stroke:none"
           id="path158" />
        <path
           d="m 223.758,332.456 c 52.09,10.523 102.85,-23.171 113.374,-75.261 10.525,-52.09 -20.628,-115.424 -72.717,-125.95 -52.091,-10.525 -105.391,35.746 -115.916,87.836 -10.525,52.091 23.169,102.85 75.259,113.375"
           style="fill:#ab2721;fill-opacity:1;fill-rule:evenodd;stroke:none"
           id="path160" />
        <path
           d="m 214.102,137.82 5.951,-4.375 c 7.78,-5.716 9.536,-16.615 3.947,-24.486 -6.266,-8.821 -4.297,-21.038 4.421,-27.444 l -0.338,8.826 c -0.271,7.042 4.294,13.363 11.068,15.319 6.134,1.773 11.081,6.325 13.353,12.293 2.272,5.968 1.608,12.657 -1.796,18.062 z"
           style="fill:#ab2721;fill-opacity:1;fill-rule:evenodd;stroke:none"
           id="path162" />
        <path
           d="m 303.125,155.632 -3.035,-6.735 c -3.968,-8.802 -0.142,-19.158 8.595,-23.267 9.791,-4.606 14.078,-16.211 9.632,-26.076 l -4.039,7.854 c -3.227,6.267 -10.309,9.529 -17.169,7.905 -6.214,-1.471 -12.758,0.064 -17.67,4.145 -4.912,4.082 -7.62,10.235 -7.312,16.613 z"
           style="fill:#ab2721;fill-opacity:1;fill-rule:evenodd;stroke:none"
           id="path164" />
        <path
           d="m 245.196,134.799 -2.283,-4.019 c -3.013,-5.303 -2.975,-12.121 0.101,-18.524 3.077,-6.404 8.858,-11.698 15.713,-14.389 l -0.009,5.187 c -0.019,9.269 0.686,18.394 2.11,27.303 l 2.575,-2.733 c 6.698,-7.109 10.869,-15.791 11.745,-24.443 l 2.512,2.379 c 8.544,8.085 9.579,21.478 2.586,33.448 -3.954,6.768 -11.564,11.295 -19.061,11.339 -7.498,0.045 -13.294,-4.404 -14.519,-11.141 z"
           style="fill:#ab2721;fill-opacity:1;fill-rule:evenodd;stroke:none"
           id="path166" />
        <path
           d="m 223.758,332.456 c 23.908,4.83 47.531,0.342 67.116,-10.962 l 11.103,-11.741 c 13.221,-13.982 20.045,-32.823 18.843,-52.027 -1.2,-19.205 -10.316,-37.051 -25.175,-49.278 -16.095,-13.242 -39.69,-11.766 -54.01,3.377 -2.672,2.825 -6.611,4.074 -10.424,3.303 -3.812,-0.77 -6.957,-3.45 -8.323,-7.092 -5.77,-15.387 -20.916,-25.197 -37.317,-24.173 -16.402,1.025 -30.209,12.646 -34.017,28.633 -0.983,4.124 -2.319,8.086 -3.968,11.86 -7.309,50.201 25.843,97.931 76.172,108.1"
           style="fill:#cc2d23;fill-opacity:1;fill-rule:evenodd;stroke:none"
           id="path168" />
        <path
           d="m 201.317,311.772 c 22.26,4.499 39.27,-10.377 37.99,-33.228 -1.281,-22.848 -20.365,-45.019 -42.627,-49.516 -22.262,-4.499 -39.27,10.378 -37.989,33.228 1.28,22.848 20.364,45.018 42.626,49.516"
           style="fill:#da2e23;fill-opacity:1;fill-rule:evenodd;stroke:none"
           id="path170" />
        <path
           d="m 190.691,298.407 c 5.385,1.086 9.499,-2.511 9.19,-8.039 -0.31,-5.527 -4.926,-10.889 -10.312,-11.979 -5.385,-1.087 -9.499,2.511 -9.191,8.039 0.311,5.527 4.928,10.889 10.313,11.979"
           style="fill:#ffffff;fill-opacity:1;fill-rule:evenodd;stroke:none"
           id="path172" />
        <path
           d="m 179.531,271.92 c 2.53,1.498 5.242,0.402 6.057,-2.443 0.815,-2.849 -0.574,-6.372 -3.105,-7.87 -2.529,-1.495 -5.242,-0.4 -6.057,2.448 -0.815,2.848 0.574,6.37 3.105,7.865"
           style="fill:#ffffff;fill-opacity:1;fill-rule:evenodd;stroke:none"
           id="path174" />
        <path
           d="M 164.768,381.071 151.329,367.839 C 105.339,322.563 77.66,261.92 73.591,197.512 l 7.947,15.452 c 6.97,13.554 16.783,25.445 28.769,34.861 34.005,26.712 52.96,68.244 50.86,111.437 -0.362,7.442 -1.253,17.029 3.601,21.809"
           style="fill:#2f9a3f;fill-opacity:1;fill-rule:evenodd;stroke:none"
           id="path176" />
        <path
           d="M 164.768,381.071 151.329,367.839 C 105.339,322.563 77.66,261.92 73.591,197.512 c 26.811,76.315 49.771,123.876 89.07,180.533 0.539,1.139 1.229,2.162 2.107,3.026"
           style="fill:#267837;fill-opacity:1;fill-rule:evenodd;stroke:none"
           id="path178" />
        <path
           d="m 334.11,386.796 6.831,-17.579 c 23.37,-60.156 68.101,-109.581 125.636,-138.819 l -11.046,13.417 c -9.685,11.768 -16.72,25.485 -20.621,40.22 -11.07,41.802 -41.704,75.65 -82.197,90.821 -6.978,2.614 -16.136,5.591 -18.603,11.94"
           style="fill:#2f9a3f;fill-opacity:1;fill-rule:evenodd;stroke:none"
           id="path180" />
        <path
           d="m 334.11,386.796 6.831,-17.579 c 23.37,-60.156 68.101,-109.581 125.636,-138.819 -59.466,54.833 -94.05,94.748 -130.523,153.265 -0.832,0.946 -1.496,1.983 -1.944,3.133"
           style="fill:#267837;fill-opacity:1;fill-rule:evenodd;stroke:none"
           id="path182" />
      </g>
    </g>
  </g>
</svg>
